<mxfile host="app.diagrams.net" modified="2024-01-11T01:29:28.744Z" agent="Mozilla/5.0 (Macintosh; Intel Mac OS X 10_15_7) AppleWebKit/537.36 (KHTML, like Gecko) Chrome/120.0.0.0 Safari/537.36" etag="CMj21fZ2UxnjEi03zw8j" version="22.1.17" type="github">
  <diagram name="Page-1" id="AEEwfo_L1PQkJ27e-jiB">
    <mxGraphModel dx="1383" dy="747" grid="1" gridSize="10" guides="1" tooltips="1" connect="1" arrows="1" fold="1" page="1" pageScale="1" pageWidth="827" pageHeight="1169" math="0" shadow="0">
      <root>
        <mxCell id="0" />
        <mxCell id="1" parent="0" />
        <mxCell id="DRs7l1XTm7XeK8EuBdXZ-29" value="" style="rounded=0;whiteSpace=wrap;html=1;" vertex="1" parent="1">
          <mxGeometry x="65" y="40" width="625" height="690" as="geometry" />
        </mxCell>
        <mxCell id="DRs7l1XTm7XeK8EuBdXZ-1" value="FG IDP" style="rounded=0;whiteSpace=wrap;html=1;" vertex="1" parent="1">
          <mxGeometry x="360" y="80" width="120" height="40" as="geometry" />
        </mxCell>
        <mxCell id="DRs7l1XTm7XeK8EuBdXZ-2" value="SBN User" style="shape=umlActor;verticalLabelPosition=bottom;verticalAlign=top;html=1;outlineConnect=0;" vertex="1" parent="1">
          <mxGeometry x="110" y="180" width="30" height="60" as="geometry" />
        </mxCell>
        <mxCell id="DRs7l1XTm7XeK8EuBdXZ-4" value="SBN Service" style="rounded=0;whiteSpace=wrap;html=1;" vertex="1" parent="1">
          <mxGeometry x="480" y="200" width="120" height="40" as="geometry" />
        </mxCell>
        <mxCell id="DRs7l1XTm7XeK8EuBdXZ-5" value="FG Service" style="rounded=0;whiteSpace=wrap;html=1;" vertex="1" parent="1">
          <mxGeometry x="360" y="320" width="120" height="40" as="geometry" />
        </mxCell>
        <mxCell id="DRs7l1XTm7XeK8EuBdXZ-6" value="SBN Logon" style="rounded=0;whiteSpace=wrap;html=1;" vertex="1" parent="1">
          <mxGeometry x="240" y="200" width="120" height="40" as="geometry" />
        </mxCell>
        <mxCell id="DRs7l1XTm7XeK8EuBdXZ-7" value="FG IDP" style="rounded=0;whiteSpace=wrap;html=1;" vertex="1" parent="1">
          <mxGeometry x="360" y="420" width="120" height="40" as="geometry" />
        </mxCell>
        <mxCell id="DRs7l1XTm7XeK8EuBdXZ-8" value="FG User" style="shape=umlActor;verticalLabelPosition=bottom;verticalAlign=top;html=1;outlineConnect=0;" vertex="1" parent="1">
          <mxGeometry x="110" y="520" width="30" height="60" as="geometry" />
        </mxCell>
        <mxCell id="DRs7l1XTm7XeK8EuBdXZ-9" value="SBN Service" style="rounded=0;whiteSpace=wrap;html=1;" vertex="1" parent="1">
          <mxGeometry x="480" y="540" width="120" height="40" as="geometry" />
        </mxCell>
        <mxCell id="DRs7l1XTm7XeK8EuBdXZ-10" value="FG Service" style="rounded=0;whiteSpace=wrap;html=1;" vertex="1" parent="1">
          <mxGeometry x="360" y="660" width="120" height="40" as="geometry" />
        </mxCell>
        <mxCell id="DRs7l1XTm7XeK8EuBdXZ-11" value="FG Logon" style="rounded=0;whiteSpace=wrap;html=1;" vertex="1" parent="1">
          <mxGeometry x="240" y="540" width="120" height="40" as="geometry" />
        </mxCell>
        <mxCell id="DRs7l1XTm7XeK8EuBdXZ-12" value="" style="endArrow=classic;html=1;rounded=0;" edge="1" parent="1">
          <mxGeometry width="50" height="50" relative="1" as="geometry">
            <mxPoint x="170" y="560" as="sourcePoint" />
            <mxPoint x="230" y="560" as="targetPoint" />
          </mxGeometry>
        </mxCell>
        <mxCell id="DRs7l1XTm7XeK8EuBdXZ-13" value="" style="endArrow=none;html=1;rounded=0;" edge="1" parent="1">
          <mxGeometry width="50" height="50" relative="1" as="geometry">
            <mxPoint x="540" y="530" as="sourcePoint" />
            <mxPoint x="470" y="470" as="targetPoint" />
          </mxGeometry>
        </mxCell>
        <mxCell id="DRs7l1XTm7XeK8EuBdXZ-14" value="Truested" style="edgeLabel;html=1;align=center;verticalAlign=middle;resizable=0;points=[];" vertex="1" connectable="0" parent="DRs7l1XTm7XeK8EuBdXZ-13">
          <mxGeometry x="0.1438" y="-3" relative="1" as="geometry">
            <mxPoint as="offset" />
          </mxGeometry>
        </mxCell>
        <mxCell id="DRs7l1XTm7XeK8EuBdXZ-15" value="" style="endArrow=classic;html=1;rounded=0;" edge="1" parent="1">
          <mxGeometry width="50" height="50" relative="1" as="geometry">
            <mxPoint x="320" y="590" as="sourcePoint" />
            <mxPoint x="390" y="650" as="targetPoint" />
          </mxGeometry>
        </mxCell>
        <mxCell id="DRs7l1XTm7XeK8EuBdXZ-28" value="access" style="edgeLabel;html=1;align=center;verticalAlign=middle;resizable=0;points=[];" vertex="1" connectable="0" parent="DRs7l1XTm7XeK8EuBdXZ-15">
          <mxGeometry x="-0.4658" y="-1" relative="1" as="geometry">
            <mxPoint x="12" y="13" as="offset" />
          </mxGeometry>
        </mxCell>
        <mxCell id="DRs7l1XTm7XeK8EuBdXZ-16" value="" style="endArrow=classic;startArrow=classic;html=1;rounded=0;" edge="1" parent="1">
          <mxGeometry width="50" height="50" relative="1" as="geometry">
            <mxPoint x="290" y="530" as="sourcePoint" />
            <mxPoint x="350" y="460" as="targetPoint" />
          </mxGeometry>
        </mxCell>
        <mxCell id="DRs7l1XTm7XeK8EuBdXZ-17" value="Get access token" style="edgeLabel;html=1;align=center;verticalAlign=middle;resizable=0;points=[];" vertex="1" connectable="0" parent="DRs7l1XTm7XeK8EuBdXZ-16">
          <mxGeometry x="-0.0338" y="1" relative="1" as="geometry">
            <mxPoint as="offset" />
          </mxGeometry>
        </mxCell>
        <mxCell id="DRs7l1XTm7XeK8EuBdXZ-19" value="" style="endArrow=classic;html=1;rounded=0;" edge="1" parent="1">
          <mxGeometry width="50" height="50" relative="1" as="geometry">
            <mxPoint x="380" y="560" as="sourcePoint" />
            <mxPoint x="460" y="560" as="targetPoint" />
          </mxGeometry>
        </mxCell>
        <mxCell id="DRs7l1XTm7XeK8EuBdXZ-27" value="access" style="edgeLabel;html=1;align=center;verticalAlign=middle;resizable=0;points=[];" vertex="1" connectable="0" parent="DRs7l1XTm7XeK8EuBdXZ-19">
          <mxGeometry x="-0.0632" y="2" relative="1" as="geometry">
            <mxPoint as="offset" />
          </mxGeometry>
        </mxCell>
        <mxCell id="DRs7l1XTm7XeK8EuBdXZ-20" value="" style="endArrow=classic;html=1;rounded=0;" edge="1" parent="1">
          <mxGeometry width="50" height="50" relative="1" as="geometry">
            <mxPoint x="160" y="220" as="sourcePoint" />
            <mxPoint x="220" y="220" as="targetPoint" />
          </mxGeometry>
        </mxCell>
        <mxCell id="DRs7l1XTm7XeK8EuBdXZ-21" value="" style="endArrow=classic;html=1;rounded=0;" edge="1" parent="1">
          <mxGeometry width="50" height="50" relative="1" as="geometry">
            <mxPoint x="390" y="220" as="sourcePoint" />
            <mxPoint x="460" y="220" as="targetPoint" />
          </mxGeometry>
        </mxCell>
        <mxCell id="DRs7l1XTm7XeK8EuBdXZ-22" value="access" style="edgeLabel;html=1;align=center;verticalAlign=middle;resizable=0;points=[];" vertex="1" connectable="0" parent="DRs7l1XTm7XeK8EuBdXZ-21">
          <mxGeometry x="-0.1248" y="-2" relative="1" as="geometry">
            <mxPoint x="-1" y="-2" as="offset" />
          </mxGeometry>
        </mxCell>
        <mxCell id="DRs7l1XTm7XeK8EuBdXZ-23" value="" style="endArrow=classic;html=1;rounded=0;" edge="1" parent="1">
          <mxGeometry width="50" height="50" relative="1" as="geometry">
            <mxPoint x="290" y="250" as="sourcePoint" />
            <mxPoint x="350" y="310" as="targetPoint" />
          </mxGeometry>
        </mxCell>
        <mxCell id="DRs7l1XTm7XeK8EuBdXZ-24" value="" style="shape=cross;whiteSpace=wrap;html=1;rotation=45;fillColor=#FF3333;strokeColor=none;size=0.11462573084497762;" vertex="1" parent="1">
          <mxGeometry x="300" y="270" width="20" height="19.27" as="geometry" />
        </mxCell>
        <mxCell id="DRs7l1XTm7XeK8EuBdXZ-30" value="Phase One" style="text;html=1;align=center;verticalAlign=middle;resizable=0;points=[];autosize=1;strokeColor=none;fillColor=none;" vertex="1" parent="1">
          <mxGeometry x="65" y="40" width="80" height="30" as="geometry" />
        </mxCell>
        <mxCell id="DRs7l1XTm7XeK8EuBdXZ-31" value="" style="endArrow=none;html=1;rounded=0;dashed=1;" edge="1" parent="1">
          <mxGeometry width="50" height="50" relative="1" as="geometry">
            <mxPoint x="40" y="380" as="sourcePoint" />
            <mxPoint x="710" y="380" as="targetPoint" />
          </mxGeometry>
        </mxCell>
      </root>
    </mxGraphModel>
  </diagram>
</mxfile>
